<?xml version="1.0" encoding="UTF-8"?>
<!DOCTYPE svg
PUBLIC "-//W3C//DTD SVG 1.1//EN"
       "http://www.w3.org/Graphics/SVG/1.1/DTD/svg11.dtd">
<svg viewBox="51 12 2020 1070" width="1969px" height="1058px" xmlns="http://www.w3.org/2000/svg" version="1.1">
   <line x1="1845" y1="641" x2="1835" y2="641" style="stroke:#333;stroke-width:1;"/>
   <line x1="1247" y1="655" x2="1237" y2="655" style="stroke:#333;stroke-width:1;"/>
   <line x1="1835" y1="641" x2="1247" y2="655" style="stroke:#333;stroke-width:1;"/>
   <line x1="1837.5" y1="641" x2="1841.0355339059" y2="644.53553390593" style="stroke:#333;stroke-width:2;"/>
   <line x1="1837.5" y1="641" x2="1841.0355339059" y2="637.46446609407" style="stroke:#333;stroke-width:2;"/>
   <line x1="1242" y1="655" x2="1245.5355339059" y2="658.53553390593" style="stroke:#333;stroke-width:2;"/>
   <line x1="1242" y1="655" x2="1245.5355339059" y2="651.46446609407" style="stroke:#333;stroke-width:2;"/>
   <line x1="1845" y1="661" x2="1835" y2="661" style="stroke:#bbb;stroke-width:1;"/>
   <line x1="862" y1="635" x2="852" y2="635" style="stroke:#bbb;stroke-width:1;"/>
   <line x1="1835" y1="661" x2="862" y2="635" style="stroke:#bbb;stroke-width:1;"/>
   <line x1="1837.5" y1="661" x2="1841.0355339059" y2="664.53553390593" style="stroke:#bbb;stroke-width:2;"/>
   <line x1="1837.5" y1="661" x2="1841.0355339059" y2="657.46446609407" style="stroke:#bbb;stroke-width:2;"/>
   <line x1="857" y1="635" x2="860.53553390593" y2="638.53553390593" style="stroke:#bbb;stroke-width:2;"/>
   <line x1="857" y1="635" x2="860.53553390593" y2="631.46446609407" style="stroke:#bbb;stroke-width:2;"/>
   <line x1="390" y1="694" x2="380" y2="694" style="stroke:#cb0;stroke-width:1;"/>
   <line x1="390" y1="465" x2="400" y2="465" style="stroke:#cb0;stroke-width:1;"/>
   <line x1="380" y1="694" x2="390" y2="465" style="stroke:#cb0;stroke-width:1;"/>
   <line x1="382.5" y1="694" x2="386.03553390593" y2="697.53553390593" style="stroke:#cb0;stroke-width:2;"/>
   <line x1="382.5" y1="694" x2="386.03553390593" y2="690.46446609407" style="stroke:#cb0;stroke-width:2;"/>
   <line x1="395" y1="465" x2="391.46446609407" y2="468.53553390593" style="stroke:#cb0;stroke-width:2;"/>
   <line x1="395" y1="465" x2="391.46446609407" y2="461.46446609407" style="stroke:#cb0;stroke-width:2;"/>
   <line x1="488" y1="714" x2="498" y2="714" style="stroke:#0b0;stroke-width:1;"/>
   <line x1="685" y1="635" x2="695" y2="635" style="stroke:#0b0;stroke-width:1;"/>
   <line x1="498" y1="714" x2="685" y2="635" style="stroke:#0b0;stroke-width:1;"/>
   <line x1="495.5" y1="714" x2="491.96446609407" y2="717.53553390593" style="stroke:#0b0;stroke-width:2;"/>
   <line x1="495.5" y1="714" x2="491.96446609407" y2="710.46446609407" style="stroke:#0b0;stroke-width:2;"/>
   <line x1="690" y1="635" x2="686.46446609407" y2="638.53553390593" style="stroke:#0b0;stroke-width:2;"/>
   <line x1="690" y1="635" x2="686.46446609407" y2="631.46446609407" style="stroke:#0b0;stroke-width:2;"/>
   <line x1="1020" y1="115" x2="1010" y2="115" style="stroke:#cb0;stroke-width:1;"/>
   <line x1="715" y1="304" x2="705" y2="304" style="stroke:#cb0;stroke-width:1;"/>
   <line x1="1010" y1="115" x2="715" y2="304" style="stroke:#cb0;stroke-width:1;"/>
   <line x1="1012.5" y1="115" x2="1016.0355339059" y2="118.53553390593" style="stroke:#cb0;stroke-width:2;"/>
   <line x1="1012.5" y1="115" x2="1016.0355339059" y2="111.46446609407" style="stroke:#cb0;stroke-width:2;"/>
   <line x1="710" y1="304" x2="713.53553390593" y2="307.53553390593" style="stroke:#cb0;stroke-width:2;"/>
   <line x1="710" y1="304" x2="713.53553390593" y2="300.46446609407" style="stroke:#cb0;stroke-width:2;"/>
   <line x1="1127" y1="135" x2="1137" y2="135" style="stroke:#0bf;stroke-width:1;"/>
   <line x1="1132" y1="309" x2="1122" y2="309" style="stroke:#0bf;stroke-width:1;"/>
   <line x1="1137" y1="135" x2="1132" y2="309" style="stroke:#0bf;stroke-width:1;"/>
   <line x1="1134.5" y1="135" x2="1130.9644660941" y2="138.53553390593" style="stroke:#0bf;stroke-width:2;"/>
   <line x1="1134.5" y1="135" x2="1130.9644660941" y2="131.46446609407" style="stroke:#0bf;stroke-width:2;"/>
   <line x1="1127" y1="309" x2="1130.5355339059" y2="312.53553390593" style="stroke:#0bf;stroke-width:2;"/>
   <line x1="1127" y1="309" x2="1130.5355339059" y2="305.46446609407" style="stroke:#0bf;stroke-width:2;"/>
   <line x1="1254" y1="165" x2="1244" y2="165" style="stroke:#0bf;stroke-width:1;"/>
   <line x1="1244" y1="85" x2="1254" y2="85" style="stroke:#0bf;stroke-width:1;"/>
   <line x1="1244" y1="165" x2="1244" y2="85" style="stroke:#0bf;stroke-width:1;"/>
   <line x1="1246.5" y1="165" x2="1250.0355339059" y2="168.53553390593" style="stroke:#0bf;stroke-width:2;"/>
   <line x1="1246.5" y1="165" x2="1250.0355339059" y2="161.46446609407" style="stroke:#0bf;stroke-width:2;"/>
   <line x1="1249" y1="85" x2="1245.4644660941" y2="88.535533905933" style="stroke:#0bf;stroke-width:2;"/>
   <line x1="1249" y1="85" x2="1245.4644660941" y2="81.464466094067" style="stroke:#0bf;stroke-width:2;"/>
   <line x1="396" y1="221" x2="406" y2="221" style="stroke:#b0b;stroke-width:1;"/>
   <line x1="584" y1="304" x2="594" y2="304" style="stroke:#b0b;stroke-width:1;"/>
   <line x1="406" y1="221" x2="584" y2="304" style="stroke:#b0b;stroke-width:1;"/>
   <line x1="403.5" y1="221" x2="399.96446609407" y2="224.53553390593" style="stroke:#b0b;stroke-width:2;"/>
   <line x1="403.5" y1="221" x2="399.96446609407" y2="217.46446609407" style="stroke:#b0b;stroke-width:2;"/>
   <line x1="589" y1="304" x2="585.46446609407" y2="307.53553390593" style="stroke:#b0b;stroke-width:2;"/>
   <line x1="589" y1="304" x2="585.46446609407" y2="300.46446609407" style="stroke:#b0b;stroke-width:2;"/>
   <line x1="1100" y1="695" x2="1090" y2="695" style="stroke:#0bf;stroke-width:1;"/>
   <line x1="715" y1="304" x2="705" y2="304" style="stroke:#0bf;stroke-width:1;"/>
   <line x1="1090" y1="695" x2="715" y2="304" style="stroke:#0bf;stroke-width:1;"/>
   <line x1="1092.5" y1="695" x2="1096.0355339059" y2="698.53553390593" style="stroke:#0bf;stroke-width:2;"/>
   <line x1="1092.5" y1="695" x2="1096.0355339059" y2="691.46446609407" style="stroke:#0bf;stroke-width:2;"/>
   <line x1="710" y1="304" x2="713.53553390593" y2="307.53553390593" style="stroke:#0bf;stroke-width:2;"/>
   <line x1="710" y1="304" x2="713.53553390593" y2="300.46446609407" style="stroke:#0bf;stroke-width:2;"/>
   <line x1="1100" y1="715" x2="1090" y2="715" style="stroke:#333;stroke-width:1;"/>
   <line x1="406" y1="201" x2="396" y2="201" style="stroke:#333;stroke-width:1;"/>
   <line x1="1090" y1="715" x2="406" y2="201" style="stroke:#333;stroke-width:1;"/>
   <line x1="1092.5" y1="715" x2="1096.0355339059" y2="718.53553390593" style="stroke:#333;stroke-width:2;"/>
   <line x1="1092.5" y1="715" x2="1096.0355339059" y2="711.46446609407" style="stroke:#333;stroke-width:2;"/>
   <line x1="401" y1="201" x2="404.53553390593" y2="204.53553390593" style="stroke:#333;stroke-width:2;"/>
   <line x1="401" y1="201" x2="404.53553390593" y2="197.46446609407" style="stroke:#333;stroke-width:2;"/>
   <line x1="1237" y1="735" x2="1247" y2="735" style="stroke:#b0b;stroke-width:1;"/>
   <line x1="1849" y1="825" x2="1859" y2="825" style="stroke:#b0b;stroke-width:1;"/>
   <line x1="1247" y1="735" x2="1849" y2="825" style="stroke:#b0b;stroke-width:1;"/>
   <line x1="1244.5" y1="735" x2="1240.9644660941" y2="738.53553390593" style="stroke:#b0b;stroke-width:2;"/>
   <line x1="1244.5" y1="735" x2="1240.9644660941" y2="731.46446609407" style="stroke:#b0b;stroke-width:2;"/>
   <line x1="1854" y1="825" x2="1850.4644660941" y2="828.53553390593" style="stroke:#b0b;stroke-width:2;"/>
   <line x1="1854" y1="825" x2="1850.4644660941" y2="821.46446609407" style="stroke:#b0b;stroke-width:2;"/>
   <line x1="511" y1="485" x2="521" y2="485" style="stroke:#0bf;stroke-width:1;"/>
   <line x1="584" y1="304" x2="594" y2="304" style="stroke:#0bf;stroke-width:1;"/>
   <line x1="521" y1="485" x2="584" y2="304" style="stroke:#0bf;stroke-width:1;"/>
   <line x1="518.5" y1="485" x2="514.96446609407" y2="488.53553390593" style="stroke:#0bf;stroke-width:2;"/>
   <line x1="518.5" y1="485" x2="514.96446609407" y2="481.46446609407" style="stroke:#0bf;stroke-width:2;"/>
   <line x1="589" y1="304" x2="585.46446609407" y2="307.53553390593" style="stroke:#0bf;stroke-width:2;"/>
   <line x1="589" y1="304" x2="585.46446609407" y2="300.46446609407" style="stroke:#0bf;stroke-width:2;"/>
   <line x1="213" y1="517" x2="223" y2="517" style="stroke:#c00;stroke-width:1;"/>
   <line x1="1000" y1="309" x2="1010" y2="309" style="stroke:#c00;stroke-width:1;"/>
   <line x1="223" y1="517" x2="1000" y2="309" style="stroke:#c00;stroke-width:1;"/>
   <line x1="220.5" y1="517" x2="216.96446609407" y2="520.53553390593" style="stroke:#c00;stroke-width:2;"/>
   <line x1="220.5" y1="517" x2="216.96446609407" y2="513.46446609407" style="stroke:#c00;stroke-width:2;"/>
   <line x1="1005" y1="309" x2="1001.4644660941" y2="312.53553390593" style="stroke:#c00;stroke-width:2;"/>
   <line x1="1005" y1="309" x2="1001.4644660941" y2="305.46446609407" style="stroke:#c00;stroke-width:2;"/>
   <line x1="213" y1="537" x2="223" y2="537" style="stroke:#bbb;stroke-width:1;"/>
   <line x1="685" y1="635" x2="695" y2="635" style="stroke:#bbb;stroke-width:1;"/>
   <line x1="223" y1="537" x2="685" y2="635" style="stroke:#bbb;stroke-width:1;"/>
   <line x1="220.5" y1="537" x2="216.96446609407" y2="540.53553390593" style="stroke:#bbb;stroke-width:2;"/>
   <line x1="220.5" y1="537" x2="216.96446609407" y2="533.46446609407" style="stroke:#bbb;stroke-width:2;"/>
   <line x1="690" y1="635" x2="686.46446609407" y2="638.53553390593" style="stroke:#bbb;stroke-width:2;"/>
   <line x1="690" y1="635" x2="686.46446609407" y2="631.46446609407" style="stroke:#bbb;stroke-width:2;"/>
   <line x1="758" y1="122" x2="748" y2="122" style="stroke:#333;stroke-width:1;"/>
   <line x1="715" y1="304" x2="705" y2="304" style="stroke:#333;stroke-width:1;"/>
   <line x1="748" y1="122" x2="715" y2="304" style="stroke:#333;stroke-width:1;"/>
   <line x1="750.5" y1="122" x2="754.03553390593" y2="125.53553390593" style="stroke:#333;stroke-width:2;"/>
   <line x1="750.5" y1="122" x2="754.03553390593" y2="118.46446609407" style="stroke:#333;stroke-width:2;"/>
   <line x1="710" y1="304" x2="713.53553390593" y2="307.53553390593" style="stroke:#333;stroke-width:2;"/>
   <line x1="710" y1="304" x2="713.53553390593" y2="300.46446609407" style="stroke:#333;stroke-width:2;"/>
   <line x1="852" y1="655" x2="862" y2="655" style="stroke:#333;stroke-width:1;"/>
   <line x1="1000" y1="309" x2="1010" y2="309" style="stroke:#333;stroke-width:1;"/>
   <line x1="862" y1="655" x2="1000" y2="309" style="stroke:#333;stroke-width:1;"/>
   <line x1="859.5" y1="655" x2="855.96446609407" y2="658.53553390593" style="stroke:#333;stroke-width:2;"/>
   <line x1="859.5" y1="655" x2="855.96446609407" y2="651.46446609407" style="stroke:#333;stroke-width:2;"/>
   <line x1="1005" y1="309" x2="1001.4644660941" y2="312.53553390593" style="stroke:#333;stroke-width:2;"/>
   <line x1="1005" y1="309" x2="1001.4644660941" y2="305.46446609407" style="stroke:#333;stroke-width:2;"/>
   <line x1="1122" y1="329" x2="1132" y2="329" style="stroke:#0b0;stroke-width:1;"/>
   <line x1="1244" y1="85" x2="1254" y2="85" style="stroke:#0b0;stroke-width:1;"/>
   <line x1="1132" y1="329" x2="1244" y2="85" style="stroke:#0b0;stroke-width:1;"/>
   <line x1="1129.5" y1="329" x2="1125.9644660941" y2="332.53553390593" style="stroke:#0b0;stroke-width:2;"/>
   <line x1="1129.5" y1="329" x2="1125.9644660941" y2="325.46446609407" style="stroke:#0b0;stroke-width:2;"/>
   <line x1="1249" y1="85" x2="1245.4644660941" y2="88.535533905933" style="stroke:#0b0;stroke-width:2;"/>
   <line x1="1249" y1="85" x2="1245.4644660941" y2="81.464466094067" style="stroke:#0b0;stroke-width:2;"/>
   <line x1="1499" y1="352" x2="1489" y2="352" style="stroke:#c00;stroke-width:1;"/>
   <line x1="1132" y1="309" x2="1122" y2="309" style="stroke:#c00;stroke-width:1;"/>
   <line x1="1489" y1="352" x2="1132" y2="309" style="stroke:#c00;stroke-width:1;"/>
   <line x1="1491.5" y1="352" x2="1495.0355339059" y2="355.53553390593" style="stroke:#c00;stroke-width:2;"/>
   <line x1="1491.5" y1="352" x2="1495.0355339059" y2="348.46446609407" style="stroke:#c00;stroke-width:2;"/>
   <line x1="1127" y1="309" x2="1130.5355339059" y2="312.53553390593" style="stroke:#c00;stroke-width:2;"/>
   <line x1="1127" y1="309" x2="1130.5355339059" y2="305.46446609407" style="stroke:#c00;stroke-width:2;"/>
   <line x1="1665" y1="372" x2="1675" y2="372" style="stroke:#0b0;stroke-width:1;"/>
   <line x1="1838" y1="57" x2="1848" y2="57" style="stroke:#0b0;stroke-width:1;"/>
   <line x1="1675" y1="372" x2="1838" y2="57" style="stroke:#0b0;stroke-width:1;"/>
   <line x1="1672.5" y1="372" x2="1668.9644660941" y2="375.53553390593" style="stroke:#0b0;stroke-width:2;"/>
   <line x1="1672.5" y1="372" x2="1668.9644660941" y2="368.46446609407" style="stroke:#0b0;stroke-width:2;"/>
   <line x1="1843" y1="57" x2="1839.4644660941" y2="60.535533905933" style="stroke:#0b0;stroke-width:2;"/>
   <line x1="1843" y1="57" x2="1839.4644660941" y2="53.464466094067" style="stroke:#0b0;stroke-width:2;"/>
   <line x1="1749" y1="376" x2="1739" y2="376" style="stroke:#333;stroke-width:1;"/>
   <line x1="1247" y1="655" x2="1237" y2="655" style="stroke:#333;stroke-width:1;"/>
   <line x1="1739" y1="376" x2="1247" y2="655" style="stroke:#333;stroke-width:1;"/>
   <line x1="1741.5" y1="376" x2="1745.0355339059" y2="379.53553390593" style="stroke:#333;stroke-width:2;"/>
   <line x1="1741.5" y1="376" x2="1745.0355339059" y2="372.46446609407" style="stroke:#333;stroke-width:2;"/>
   <line x1="1242" y1="655" x2="1245.5355339059" y2="658.53553390593" style="stroke:#333;stroke-width:2;"/>
   <line x1="1242" y1="655" x2="1245.5355339059" y2="651.46446609407" style="stroke:#333;stroke-width:2;"/>
   <line x1="1749" y1="396" x2="1739" y2="396" style="stroke:#bbb;stroke-width:1;"/>
   <line x1="715" y1="304" x2="705" y2="304" style="stroke:#bbb;stroke-width:1;"/>
   <line x1="1739" y1="396" x2="715" y2="304" style="stroke:#bbb;stroke-width:1;"/>
   <line x1="1741.5" y1="396" x2="1745.0355339059" y2="399.53553390593" style="stroke:#bbb;stroke-width:2;"/>
   <line x1="1741.5" y1="396" x2="1745.0355339059" y2="392.46446609407" style="stroke:#bbb;stroke-width:2;"/>
   <line x1="710" y1="304" x2="713.53553390593" y2="307.53553390593" style="stroke:#bbb;stroke-width:2;"/>
   <line x1="710" y1="304" x2="713.53553390593" y2="300.46446609407" style="stroke:#bbb;stroke-width:2;"/>
   <line x1="1481" y1="130" x2="1471" y2="130" style="stroke:#0bf;stroke-width:1;"/>
   <line x1="1132" y1="309" x2="1122" y2="309" style="stroke:#0bf;stroke-width:1;"/>
   <line x1="1471" y1="130" x2="1132" y2="309" style="stroke:#0bf;stroke-width:1;"/>
   <line x1="1473.5" y1="130" x2="1477.0355339059" y2="133.53553390593" style="stroke:#0bf;stroke-width:2;"/>
   <line x1="1473.5" y1="130" x2="1477.0355339059" y2="126.46446609407" style="stroke:#0bf;stroke-width:2;"/>
   <line x1="1127" y1="309" x2="1130.5355339059" y2="312.53553390593" style="stroke:#0bf;stroke-width:2;"/>
   <line x1="1127" y1="309" x2="1130.5355339059" y2="305.46446609407" style="stroke:#0bf;stroke-width:2;"/>
   <line x1="634" y1="109" x2="644" y2="109" style="stroke:#b0b;stroke-width:1;"/>
   <line x1="584" y1="304" x2="594" y2="304" style="stroke:#b0b;stroke-width:1;"/>
   <line x1="644" y1="109" x2="584" y2="304" style="stroke:#b0b;stroke-width:1;"/>
   <line x1="641.5" y1="109" x2="637.96446609407" y2="112.53553390593" style="stroke:#b0b;stroke-width:2;"/>
   <line x1="641.5" y1="109" x2="637.96446609407" y2="105.46446609407" style="stroke:#b0b;stroke-width:2;"/>
   <line x1="589" y1="304" x2="585.46446609407" y2="307.53553390593" style="stroke:#b0b;stroke-width:2;"/>
   <line x1="589" y1="304" x2="585.46446609407" y2="300.46446609407" style="stroke:#b0b;stroke-width:2;"/>
   <line x1="634" y1="129" x2="644" y2="129" style="stroke:#b0b;stroke-width:1;"/>
   <line x1="1000" y1="309" x2="1010" y2="309" style="stroke:#b0b;stroke-width:1;"/>
   <line x1="644" y1="129" x2="1000" y2="309" style="stroke:#b0b;stroke-width:1;"/>
   <line x1="641.5" y1="129" x2="637.96446609407" y2="132.53553390593" style="stroke:#b0b;stroke-width:2;"/>
   <line x1="641.5" y1="129" x2="637.96446609407" y2="125.46446609407" style="stroke:#b0b;stroke-width:2;"/>
   <line x1="1005" y1="309" x2="1001.4644660941" y2="312.53553390593" style="stroke:#b0b;stroke-width:2;"/>
   <line x1="1005" y1="309" x2="1001.4644660941" y2="305.46446609407" style="stroke:#b0b;stroke-width:2;"/>
   <rect width="160" height="20" x="1845" y="591" style="fill:#007;stroke:black;"/>
   <text width="160" height="20" x="1850" y="605" style="fill:#fff;" font-family="Arial" font-size="16px"> chi_tiet_don</text>
   <rect width="160" height="20" x="1845" y="611" style="fill:#aea;stroke:black;"/>
   <text width="160" height="20" x="1850" y="625" style="fill:black;" font-family="Arial" font-size="16px">id</text>
   <rect width="160" height="20" x="1845" y="631" style="fill:none;stroke:black;"/>
   <text width="160" height="20" x="1850" y="645" style="fill:black;" font-family="Arial" font-size="16px">don_hang_id</text>
   <rect width="160" height="20" x="1845" y="651" style="fill:none;stroke:black;"/>
   <text width="160" height="20" x="1850" y="665" style="fill:black;" font-family="Arial" font-size="16px">phien_ban_id</text>
   <rect width="160" height="20" x="1845" y="671" style="fill:none;stroke:black;"/>
   <text width="160" height="20" x="1850" y="685" style="fill:black;" font-family="Arial" font-size="16px">so_luong</text>
   <rect width="160" height="20" x="1845" y="691" style="fill:none;stroke:black;"/>
   <text width="160" height="20" x="1850" y="705" style="fill:black;" font-family="Arial" font-size="16px">gia_tai_thoi_diem_mua</text>
   <rect width="98" height="20" x="390" y="644" style="fill:#007;stroke:black;"/>
   <text width="98" height="20" x="395" y="658" style="fill:#fff;" font-family="Arial" font-size="16px"> chi_tiet_gio</text>
   <rect width="98" height="20" x="390" y="664" style="fill:#aea;stroke:black;"/>
   <text width="98" height="20" x="395" y="678" style="fill:black;" font-family="Arial" font-size="16px">id</text>
   <rect width="98" height="20" x="390" y="684" style="fill:none;stroke:black;"/>
   <text width="98" height="20" x="395" y="698" style="fill:black;" font-family="Arial" font-size="16px">gio_hang_id</text>
   <rect width="98" height="20" x="390" y="704" style="fill:none;stroke:black;"/>
   <text width="98" height="20" x="395" y="718" style="fill:black;" font-family="Arial" font-size="16px">phien_ban_id</text>
   <rect width="98" height="20" x="390" y="724" style="fill:none;stroke:black;"/>
   <text width="98" height="20" x="395" y="738" style="fill:black;" font-family="Arial" font-size="16px">so_luong</text>
   <rect width="107" height="20" x="1020" y="65" style="fill:#007;stroke:black;"/>
   <text width="107" height="20" x="1025" y="79" style="fill:#fff;" font-family="Arial" font-size="16px"> danh_gia</text>
   <rect width="107" height="20" x="1020" y="85" style="fill:#aea;stroke:black;"/>
   <text width="107" height="20" x="1025" y="99" style="fill:black;" font-family="Arial" font-size="16px">id</text>
   <rect width="107" height="20" x="1020" y="105" style="fill:none;stroke:black;"/>
   <text width="107" height="20" x="1025" y="119" style="fill:black;" font-family="Arial" font-size="16px">nguoi_dung_id</text>
   <rect width="107" height="20" x="1020" y="125" style="fill:none;stroke:black;"/>
   <text width="107" height="20" x="1025" y="139" style="fill:black;" font-family="Arial" font-size="16px">san_pham_id</text>
   <rect width="107" height="20" x="1020" y="145" style="fill:none;stroke:black;"/>
   <text width="107" height="20" x="1025" y="159" style="fill:black;" font-family="Arial" font-size="16px">so_sao</text>
   <rect width="107" height="20" x="1020" y="165" style="fill:none;stroke:black;"/>
   <text width="107" height="20" x="1025" y="179" style="fill:black;" font-family="Arial" font-size="16px">noi_dung</text>
   <rect width="107" height="20" x="1020" y="185" style="fill:none;stroke:black;"/>
   <text width="107" height="20" x="1025" y="199" style="fill:black;" font-family="Arial" font-size="16px">ngay_viet</text>
   <rect width="129" height="20" x="1254" y="55" style="fill:#007;stroke:black;"/>
   <text width="129" height="20" x="1259" y="69" style="fill:#fff;" font-family="Arial" font-size="16px"> danh_muc</text>
   <rect width="129" height="20" x="1254" y="75" style="fill:#aea;stroke:black;"/>
   <text width="129" height="20" x="1259" y="89" style="fill:black;" font-family="Arial" font-size="16px">id</text>
   <rect width="129" height="20" x="1254" y="95" style="fill:none;stroke:black;"/>
   <text width="129" height="20" x="1259" y="109" style="fill:black;" font-family="Arial" font-size="16px">ten</text>
   <rect width="129" height="20" x="1254" y="115" style="fill:none;stroke:black;"/>
   <text width="129" height="20" x="1259" y="129" style="fill:black;" font-family="Arial" font-size="16px">slug</text>
   <rect width="129" height="20" x="1254" y="135" style="fill:none;stroke:black;"/>
   <text width="129" height="20" x="1259" y="149" style="fill:black;" font-family="Arial" font-size="16px">icon_url</text>
   <rect width="129" height="20" x="1254" y="155" style="fill:none;stroke:black;"/>
   <text width="129" height="20" x="1259" y="169" style="fill:black;" font-family="Arial" font-size="16px">danh_muc_cha_id</text>
   <rect width="129" height="20" x="1254" y="175" style="fill:none;stroke:black;"/>
   <text width="129" height="20" x="1259" y="189" style="fill:black;" font-family="Arial" font-size="16px">thu_tu</text>
   <rect width="129" height="20" x="1254" y="195" style="fill:none;stroke:black;"/>
   <text width="129" height="20" x="1259" y="209" style="fill:black;" font-family="Arial" font-size="16px">trang_thai</text>
   <rect width="117" height="20" x="279" y="171" style="fill:#007;stroke:black;"/>
   <text width="117" height="20" x="284" y="185" style="fill:#fff;" font-family="Arial" font-size="16px"> dia_chi</text>
   <rect width="117" height="20" x="279" y="191" style="fill:#aea;stroke:black;"/>
   <text width="117" height="20" x="284" y="205" style="fill:black;" font-family="Arial" font-size="16px">id</text>
   <rect width="117" height="20" x="279" y="211" style="fill:none;stroke:black;"/>
   <text width="117" height="20" x="284" y="225" style="fill:black;" font-family="Arial" font-size="16px">nguoi_dung_id</text>
   <rect width="117" height="20" x="279" y="231" style="fill:none;stroke:black;"/>
   <text width="117" height="20" x="284" y="245" style="fill:black;" font-family="Arial" font-size="16px">ten_nguoi_nhan</text>
   <rect width="117" height="20" x="279" y="251" style="fill:none;stroke:black;"/>
   <text width="117" height="20" x="284" y="265" style="fill:black;" font-family="Arial" font-size="16px">sdt_nhan</text>
   <rect width="117" height="20" x="279" y="271" style="fill:none;stroke:black;"/>
   <text width="117" height="20" x="284" y="285" style="fill:black;" font-family="Arial" font-size="16px">so_nha_duong</text>
   <rect width="117" height="20" x="279" y="291" style="fill:none;stroke:black;"/>
   <text width="117" height="20" x="284" y="305" style="fill:black;" font-family="Arial" font-size="16px">phuong_xa</text>
   <rect width="117" height="20" x="279" y="311" style="fill:none;stroke:black;"/>
   <text width="117" height="20" x="284" y="325" style="fill:black;" font-family="Arial" font-size="16px">quan_huyen</text>
   <rect width="117" height="20" x="279" y="331" style="fill:none;stroke:black;"/>
   <text width="117" height="20" x="284" y="345" style="fill:black;" font-family="Arial" font-size="16px">tinh_thanh</text>
   <rect width="117" height="20" x="279" y="351" style="fill:none;stroke:black;"/>
   <text width="117" height="20" x="284" y="365" style="fill:black;" font-family="Arial" font-size="16px">mac_dinh</text>
   <rect width="137" height="20" x="1100" y="625" style="fill:#007;stroke:black;"/>
   <text width="137" height="20" x="1105" y="639" style="fill:#fff;" font-family="Arial" font-size="16px"> don_hang</text>
   <rect width="137" height="20" x="1100" y="645" style="fill:#aea;stroke:black;"/>
   <text width="137" height="20" x="1105" y="659" style="fill:black;" font-family="Arial" font-size="16px">id</text>
   <rect width="137" height="20" x="1100" y="665" style="fill:none;stroke:black;"/>
   <text width="137" height="20" x="1105" y="679" style="fill:black;" font-family="Arial" font-size="16px">ma_don_hang</text>
   <rect width="137" height="20" x="1100" y="685" style="fill:none;stroke:black;"/>
   <text width="137" height="20" x="1105" y="699" style="fill:black;" font-family="Arial" font-size="16px">nguoi_dung_id</text>
   <rect width="137" height="20" x="1100" y="705" style="fill:none;stroke:black;"/>
   <text width="137" height="20" x="1105" y="719" style="fill:black;" font-family="Arial" font-size="16px">dia_chi_id</text>
   <rect width="137" height="20" x="1100" y="725" style="fill:none;stroke:black;"/>
   <text width="137" height="20" x="1105" y="739" style="fill:black;" font-family="Arial" font-size="16px">ma_giam_gia_id</text>
   <rect width="137" height="20" x="1100" y="745" style="fill:none;stroke:black;"/>
   <text width="137" height="20" x="1105" y="759" style="fill:black;" font-family="Arial" font-size="16px">trang_thai</text>
   <rect width="137" height="20" x="1100" y="765" style="fill:none;stroke:black;"/>
   <text width="137" height="20" x="1105" y="779" style="fill:black;" font-family="Arial" font-size="16px">tong_tien</text>
   <rect width="137" height="20" x="1100" y="785" style="fill:none;stroke:black;"/>
   <text width="137" height="20" x="1105" y="799" style="fill:black;" font-family="Arial" font-size="16px">phi_van_chuyen</text>
   <rect width="137" height="20" x="1100" y="805" style="fill:none;stroke:black;"/>
   <text width="137" height="20" x="1105" y="819" style="fill:black;" font-family="Arial" font-size="16px">tien_giam_gia</text>
   <rect width="137" height="20" x="1100" y="825" style="fill:none;stroke:black;"/>
   <text width="137" height="20" x="1105" y="839" style="fill:black;" font-family="Arial" font-size="16px">tong_thanh_toan</text>
   <rect width="137" height="20" x="1100" y="845" style="fill:none;stroke:black;"/>
   <text width="137" height="20" x="1105" y="859" style="fill:black;" font-family="Arial" font-size="16px">thong_tin_guest</text>
   <rect width="137" height="20" x="1100" y="865" style="fill:none;stroke:black;"/>
   <text width="137" height="20" x="1105" y="879" style="fill:black;" font-family="Arial" font-size="16px">ghi_chu</text>
   <rect width="137" height="20" x="1100" y="885" style="fill:none;stroke:black;"/>
   <text width="137" height="20" x="1105" y="899" style="fill:black;" font-family="Arial" font-size="16px">ngay_giao_du_kien</text>
   <rect width="137" height="20" x="1100" y="905" style="fill:none;stroke:black;"/>
   <text width="137" height="20" x="1105" y="919" style="fill:black;" font-family="Arial" font-size="16px">ngay_tao</text>
   <rect width="137" height="20" x="1100" y="925" style="fill:none;stroke:black;"/>
   <text width="137" height="20" x="1105" y="939" style="fill:black;" font-family="Arial" font-size="16px">ngay_cap_nhat</text>
   <rect width="111" height="20" x="400" y="435" style="fill:#007;stroke:black;"/>
   <text width="111" height="20" x="405" y="449" style="fill:#fff;" font-family="Arial" font-size="16px"> gio_hang</text>
   <rect width="111" height="20" x="400" y="455" style="fill:#aea;stroke:black;"/>
   <text width="111" height="20" x="405" y="469" style="fill:black;" font-family="Arial" font-size="16px">id</text>
   <rect width="111" height="20" x="400" y="475" style="fill:none;stroke:black;"/>
   <text width="111" height="20" x="405" y="489" style="fill:black;" font-family="Arial" font-size="16px">nguoi_dung_id</text>
   <rect width="111" height="20" x="400" y="495" style="fill:none;stroke:black;"/>
   <text width="111" height="20" x="405" y="509" style="fill:black;" font-family="Arial" font-size="16px">session_id</text>
   <rect width="111" height="20" x="400" y="515" style="fill:none;stroke:black;"/>
   <text width="111" height="20" x="405" y="529" style="fill:black;" font-family="Arial" font-size="16px">ngay_tao</text>
   <rect width="111" height="20" x="400" y="535" style="fill:none;stroke:black;"/>
   <text width="111" height="20" x="405" y="549" style="fill:black;" font-family="Arial" font-size="16px">ngay_cap_nhat</text>
   <rect width="147" height="20" x="66" y="467" style="fill:#007;stroke:black;"/>
   <text width="147" height="20" x="71" y="481" style="fill:#fff;" font-family="Arial" font-size="16px"> hinh_anh_san_pham</text>
   <rect width="147" height="20" x="66" y="487" style="fill:#aea;stroke:black;"/>
   <text width="147" height="20" x="71" y="501" style="fill:black;" font-family="Arial" font-size="16px">id</text>
   <rect width="147" height="20" x="66" y="507" style="fill:none;stroke:black;"/>
   <text width="147" height="20" x="71" y="521" style="fill:black;" font-family="Arial" font-size="16px">san_pham_id</text>
   <rect width="147" height="20" x="66" y="527" style="fill:none;stroke:black;"/>
   <text width="147" height="20" x="71" y="541" style="fill:black;" font-family="Arial" font-size="16px">phien_ban_id</text>
   <rect width="147" height="20" x="66" y="547" style="fill:none;stroke:black;"/>
   <text width="147" height="20" x="71" y="561" style="fill:black;" font-family="Arial" font-size="16px">url_anh</text>
   <rect width="147" height="20" x="66" y="567" style="fill:none;stroke:black;"/>
   <text width="147" height="20" x="71" y="581" style="fill:black;" font-family="Arial" font-size="16px">alt_text</text>
   <rect width="147" height="20" x="66" y="587" style="fill:none;stroke:black;"/>
   <text width="147" height="20" x="71" y="601" style="fill:black;" font-family="Arial" font-size="16px">la_anh_chinh</text>
   <rect width="147" height="20" x="66" y="607" style="fill:none;stroke:black;"/>
   <text width="147" height="20" x="71" y="621" style="fill:black;" font-family="Arial" font-size="16px">thu_tu</text>
   <rect width="126" height="20" x="1848" y="27" style="fill:#007;stroke:black;"/>
   <text width="126" height="20" x="1853" y="41" style="fill:#fff;" font-family="Arial" font-size="16px"> khuyen_mai</text>
   <rect width="126" height="20" x="1848" y="47" style="fill:#aea;stroke:black;"/>
   <text width="126" height="20" x="1853" y="61" style="fill:black;" font-family="Arial" font-size="16px">id</text>
   <rect width="126" height="20" x="1848" y="67" style="fill:none;stroke:black;"/>
   <text width="126" height="20" x="1853" y="81" style="fill:black;" font-family="Arial" font-size="16px">ten_chuong_trinh</text>
   <rect width="126" height="20" x="1848" y="87" style="fill:none;stroke:black;"/>
   <text width="126" height="20" x="1853" y="101" style="fill:black;" font-family="Arial" font-size="16px">loai_giam</text>
   <rect width="126" height="20" x="1848" y="107" style="fill:none;stroke:black;"/>
   <text width="126" height="20" x="1853" y="121" style="fill:black;" font-family="Arial" font-size="16px">gia_tri_giam</text>
   <rect width="126" height="20" x="1848" y="127" style="fill:none;stroke:black;"/>
   <text width="126" height="20" x="1853" y="141" style="fill:black;" font-family="Arial" font-size="16px">giam_toi_da</text>
   <rect width="126" height="20" x="1848" y="147" style="fill:none;stroke:black;"/>
   <text width="126" height="20" x="1853" y="161" style="fill:black;" font-family="Arial" font-size="16px">ngay_bat_dau</text>
   <rect width="126" height="20" x="1848" y="167" style="fill:none;stroke:black;"/>
   <text width="126" height="20" x="1853" y="181" style="fill:black;" font-family="Arial" font-size="16px">ngay_ket_thuc</text>
   <rect width="126" height="20" x="1848" y="187" style="fill:none;stroke:black;"/>
   <text width="126" height="20" x="1853" y="201" style="fill:black;" font-family="Arial" font-size="16px">trang_thai</text>
   <rect width="121" height="20" x="758" y="72" style="fill:#007;stroke:black;"/>
   <text width="121" height="20" x="763" y="86" style="fill:#fff;" font-family="Arial" font-size="16px"> lich_su_tim_kiem</text>
   <rect width="121" height="20" x="758" y="92" style="fill:#aea;stroke:black;"/>
   <text width="121" height="20" x="763" y="106" style="fill:black;" font-family="Arial" font-size="16px">id</text>
   <rect width="121" height="20" x="758" y="112" style="fill:none;stroke:black;"/>
   <text width="121" height="20" x="763" y="126" style="fill:black;" font-family="Arial" font-size="16px">nguoi_dung_id</text>
   <rect width="121" height="20" x="758" y="132" style="fill:none;stroke:black;"/>
   <text width="121" height="20" x="763" y="146" style="fill:black;" font-family="Arial" font-size="16px">tu_khoa</text>
   <rect width="121" height="20" x="758" y="152" style="fill:none;stroke:black;"/>
   <text width="121" height="20" x="763" y="166" style="fill:black;" font-family="Arial" font-size="16px">thoi_gian_tim</text>
   <rect width="129" height="20" x="1859" y="795" style="fill:#007;stroke:black;"/>
   <text width="129" height="20" x="1864" y="809" style="fill:#fff;" font-family="Arial" font-size="16px"> ma_giam_gia</text>
   <rect width="129" height="20" x="1859" y="815" style="fill:#aea;stroke:black;"/>
   <text width="129" height="20" x="1864" y="829" style="fill:black;" font-family="Arial" font-size="16px">id</text>
   <rect width="129" height="20" x="1859" y="835" style="fill:none;stroke:black;"/>
   <text width="129" height="20" x="1864" y="849" style="fill:black;" font-family="Arial" font-size="16px">ma_code</text>
   <rect width="129" height="20" x="1859" y="855" style="fill:none;stroke:black;"/>
   <text width="129" height="20" x="1864" y="869" style="fill:black;" font-family="Arial" font-size="16px">mo_ta</text>
   <rect width="129" height="20" x="1859" y="875" style="fill:none;stroke:black;"/>
   <text width="129" height="20" x="1864" y="889" style="fill:black;" font-family="Arial" font-size="16px">loai_giam</text>
   <rect width="129" height="20" x="1859" y="895" style="fill:none;stroke:black;"/>
   <text width="129" height="20" x="1864" y="909" style="fill:black;" font-family="Arial" font-size="16px">gia_tri_giam</text>
   <rect width="129" height="20" x="1859" y="915" style="fill:none;stroke:black;"/>
   <text width="129" height="20" x="1864" y="929" style="fill:black;" font-family="Arial" font-size="16px">giam_toi_da</text>
   <rect width="129" height="20" x="1859" y="935" style="fill:none;stroke:black;"/>
   <text width="129" height="20" x="1864" y="949" style="fill:black;" font-family="Arial" font-size="16px">don_toi_thieu</text>
   <rect width="129" height="20" x="1859" y="955" style="fill:none;stroke:black;"/>
   <text width="129" height="20" x="1864" y="969" style="fill:black;" font-family="Arial" font-size="16px">so_luot_da_dung</text>
   <rect width="129" height="20" x="1859" y="975" style="fill:none;stroke:black;"/>
   <text width="129" height="20" x="1864" y="989" style="fill:black;" font-family="Arial" font-size="16px">gioi_han_su_dung</text>
   <rect width="129" height="20" x="1859" y="995" style="fill:none;stroke:black;"/>
   <text width="129" height="20" x="1864" y="1009" style="fill:black;" font-family="Arial" font-size="16px">ngay_bat_dau</text>
   <rect width="129" height="20" x="1859" y="1015" style="fill:none;stroke:black;"/>
   <text width="129" height="20" x="1864" y="1029" style="fill:black;" font-family="Arial" font-size="16px">ngay_ket_thuc</text>
   <rect width="129" height="20" x="1859" y="1035" style="fill:none;stroke:black;"/>
   <text width="129" height="20" x="1864" y="1049" style="fill:black;" font-family="Arial" font-size="16px">trang_thai</text>
   <rect width="111" height="20" x="594" y="274" style="fill:#007;stroke:black;"/>
   <text width="111" height="20" x="599" y="288" style="fill:#fff;" font-family="Arial" font-size="16px"> nguoi_dung</text>
   <rect width="111" height="20" x="594" y="294" style="fill:#aea;stroke:black;"/>
   <text width="111" height="20" x="599" y="308" style="fill:black;" font-family="Arial" font-size="16px">id</text>
   <rect width="111" height="20" x="594" y="314" style="fill:none;stroke:black;"/>
   <text width="111" height="20" x="599" y="328" style="fill:black;" font-family="Arial" font-size="16px">email</text>
   <rect width="111" height="20" x="594" y="334" style="fill:none;stroke:black;"/>
   <text width="111" height="20" x="599" y="348" style="fill:black;" font-family="Arial" font-size="16px">mat_khau</text>
   <rect width="111" height="20" x="594" y="354" style="fill:none;stroke:black;"/>
   <text width="111" height="20" x="599" y="368" style="fill:black;" font-family="Arial" font-size="16px">ho_ten</text>
   <rect width="111" height="20" x="594" y="374" style="fill:none;stroke:black;"/>
   <text width="111" height="20" x="599" y="388" style="fill:black;" font-family="Arial" font-size="16px">sdt</text>
   <rect width="111" height="20" x="594" y="394" style="fill:none;stroke:black;"/>
   <text width="111" height="20" x="599" y="408" style="fill:black;" font-family="Arial" font-size="16px">avatar_url</text>
   <rect width="111" height="20" x="594" y="414" style="fill:none;stroke:black;"/>
   <text width="111" height="20" x="599" y="428" style="fill:black;" font-family="Arial" font-size="16px">ngay_sinh</text>
   <rect width="111" height="20" x="594" y="434" style="fill:none;stroke:black;"/>
   <text width="111" height="20" x="599" y="448" style="fill:black;" font-family="Arial" font-size="16px">gioi_tinh</text>
   <rect width="111" height="20" x="594" y="454" style="fill:none;stroke:black;"/>
   <text width="111" height="20" x="599" y="468" style="fill:black;" font-family="Arial" font-size="16px">loai_tai_khoan</text>
   <rect width="111" height="20" x="594" y="474" style="fill:none;stroke:black;"/>
   <text width="111" height="20" x="599" y="488" style="fill:black;" font-family="Arial" font-size="16px">trang_thai</text>
   <rect width="111" height="20" x="594" y="494" style="fill:none;stroke:black;"/>
   <text width="111" height="20" x="599" y="508" style="fill:black;" font-family="Arial" font-size="16px">ngay_tao</text>
   <rect width="111" height="20" x="594" y="514" style="fill:none;stroke:black;"/>
   <text width="111" height="20" x="599" y="528" style="fill:black;" font-family="Arial" font-size="16px">ngay_cap_nhat</text>
   <rect width="157" height="20" x="695" y="605" style="fill:#007;stroke:black;"/>
   <text width="157" height="20" x="700" y="619" style="fill:#fff;" font-family="Arial" font-size="16px"> phien_ban_san_pham</text>
   <rect width="157" height="20" x="695" y="625" style="fill:#aea;stroke:black;"/>
   <text width="157" height="20" x="700" y="639" style="fill:black;" font-family="Arial" font-size="16px">id</text>
   <rect width="157" height="20" x="695" y="645" style="fill:none;stroke:black;"/>
   <text width="157" height="20" x="700" y="659" style="fill:black;" font-family="Arial" font-size="16px">san_pham_id</text>
   <rect width="157" height="20" x="695" y="665" style="fill:none;stroke:black;"/>
   <text width="157" height="20" x="700" y="679" style="fill:black;" font-family="Arial" font-size="16px">sku</text>
   <rect width="157" height="20" x="695" y="685" style="fill:none;stroke:black;"/>
   <text width="157" height="20" x="700" y="699" style="fill:black;" font-family="Arial" font-size="16px">ten_phien_ban</text>
   <rect width="157" height="20" x="695" y="705" style="fill:none;stroke:black;"/>
   <text width="157" height="20" x="700" y="719" style="fill:black;" font-family="Arial" font-size="16px">mau_sac</text>
   <rect width="157" height="20" x="695" y="725" style="fill:none;stroke:black;"/>
   <text width="157" height="20" x="700" y="739" style="fill:black;" font-family="Arial" font-size="16px">dung_luong</text>
   <rect width="157" height="20" x="695" y="745" style="fill:none;stroke:black;"/>
   <text width="157" height="20" x="700" y="759" style="fill:black;" font-family="Arial" font-size="16px">ram</text>
   <rect width="157" height="20" x="695" y="765" style="fill:none;stroke:black;"/>
   <text width="157" height="20" x="700" y="779" style="fill:black;" font-family="Arial" font-size="16px">cau_hinh</text>
   <rect width="157" height="20" x="695" y="785" style="fill:none;stroke:black;"/>
   <text width="157" height="20" x="700" y="799" style="fill:black;" font-family="Arial" font-size="16px">gia_ban</text>
   <rect width="157" height="20" x="695" y="805" style="fill:none;stroke:black;"/>
   <text width="157" height="20" x="700" y="819" style="fill:black;" font-family="Arial" font-size="16px">gia_goc</text>
   <rect width="157" height="20" x="695" y="825" style="fill:none;stroke:black;"/>
   <text width="157" height="20" x="700" y="839" style="fill:black;" font-family="Arial" font-size="16px">so_luong_ton</text>
   <rect width="157" height="20" x="695" y="845" style="fill:none;stroke:black;"/>
   <text width="157" height="20" x="700" y="859" style="fill:black;" font-family="Arial" font-size="16px">trang_thai</text>
   <rect width="112" height="20" x="1010" y="279" style="fill:#007;stroke:black;"/>
   <text width="112" height="20" x="1015" y="293" style="fill:#fff;" font-family="Arial" font-size="16px"> san_pham</text>
   <rect width="112" height="20" x="1010" y="299" style="fill:#aea;stroke:black;"/>
   <text width="112" height="20" x="1015" y="313" style="fill:black;" font-family="Arial" font-size="16px">id</text>
   <rect width="112" height="20" x="1010" y="319" style="fill:none;stroke:black;"/>
   <text width="112" height="20" x="1015" y="333" style="fill:black;" font-family="Arial" font-size="16px">danh_muc_id</text>
   <rect width="112" height="20" x="1010" y="339" style="fill:none;stroke:black;"/>
   <text width="112" height="20" x="1015" y="353" style="fill:black;" font-family="Arial" font-size="16px">ten_san_pham</text>
   <rect width="112" height="20" x="1010" y="359" style="fill:none;stroke:black;"/>
   <text width="112" height="20" x="1015" y="373" style="fill:black;" font-family="Arial" font-size="16px">slug</text>
   <rect width="112" height="20" x="1010" y="379" style="fill:none;stroke:black;"/>
   <text width="112" height="20" x="1015" y="393" style="fill:black;" font-family="Arial" font-size="16px">hang_san_xuat</text>
   <rect width="112" height="20" x="1010" y="399" style="fill:none;stroke:black;"/>
   <text width="112" height="20" x="1015" y="413" style="fill:black;" font-family="Arial" font-size="16px">mo_ta</text>
   <rect width="112" height="20" x="1010" y="419" style="fill:none;stroke:black;"/>
   <text width="112" height="20" x="1015" y="433" style="fill:black;" font-family="Arial" font-size="16px">gia_hien_thi</text>
   <rect width="112" height="20" x="1010" y="439" style="fill:none;stroke:black;"/>
   <text width="112" height="20" x="1015" y="453" style="fill:black;" font-family="Arial" font-size="16px">diem_danh_gia</text>
   <rect width="112" height="20" x="1010" y="459" style="fill:none;stroke:black;"/>
   <text width="112" height="20" x="1015" y="473" style="fill:black;" font-family="Arial" font-size="16px">trang_thai</text>
   <rect width="112" height="20" x="1010" y="479" style="fill:none;stroke:black;"/>
   <text width="112" height="20" x="1015" y="493" style="fill:black;" font-family="Arial" font-size="16px">noi_bat</text>
   <rect width="112" height="20" x="1010" y="499" style="fill:none;stroke:black;"/>
   <text width="112" height="20" x="1015" y="513" style="fill:black;" font-family="Arial" font-size="16px">ngay_tao</text>
   <rect width="112" height="20" x="1010" y="519" style="fill:none;stroke:black;"/>
   <text width="112" height="20" x="1015" y="533" style="fill:black;" font-family="Arial" font-size="16px">ngay_cap_nhat</text>
   <rect width="166" height="20" x="1499" y="322" style="fill:#007;stroke:black;"/>
   <text width="166" height="20" x="1504" y="336" style="fill:#fff;" font-family="Arial" font-size="16px"> san_pham_khuyen_mai</text>
   <rect width="166" height="20" x="1499" y="342" style="fill:#aea;stroke:black;"/>
   <text width="166" height="20" x="1504" y="356" style="fill:black;" font-family="Arial" font-size="16px">san_pham_id</text>
   <rect width="166" height="20" x="1499" y="362" style="fill:#aea;stroke:black;"/>
   <text width="166" height="20" x="1504" y="376" style="fill:black;" font-family="Arial" font-size="16px">khuyen_mai_id</text>
   <rect width="126" height="20" x="1749" y="326" style="fill:#007;stroke:black;"/>
   <text width="126" height="20" x="1754" y="340" style="fill:#fff;" font-family="Arial" font-size="16px"> thanh_toan</text>
   <rect width="126" height="20" x="1749" y="346" style="fill:#aea;stroke:black;"/>
   <text width="126" height="20" x="1754" y="360" style="fill:black;" font-family="Arial" font-size="16px">id</text>
   <rect width="126" height="20" x="1749" y="366" style="fill:none;stroke:black;"/>
   <text width="126" height="20" x="1754" y="380" style="fill:black;" font-family="Arial" font-size="16px">don_hang_id</text>
   <rect width="126" height="20" x="1749" y="386" style="fill:none;stroke:black;"/>
   <text width="126" height="20" x="1754" y="400" style="fill:black;" font-family="Arial" font-size="16px">nguoi_duyet_id</text>
   <rect width="126" height="20" x="1749" y="406" style="fill:none;stroke:black;"/>
   <text width="126" height="20" x="1754" y="420" style="fill:black;" font-family="Arial" font-size="16px">phuong_thuc</text>
   <rect width="126" height="20" x="1749" y="426" style="fill:none;stroke:black;"/>
   <text width="126" height="20" x="1754" y="440" style="fill:black;" font-family="Arial" font-size="16px">so_tien</text>
   <rect width="126" height="20" x="1749" y="446" style="fill:none;stroke:black;"/>
   <text width="126" height="20" x="1754" y="460" style="fill:black;" font-family="Arial" font-size="16px">anh_bien_lai</text>
   <rect width="126" height="20" x="1749" y="466" style="fill:none;stroke:black;"/>
   <text width="126" height="20" x="1754" y="480" style="fill:black;" font-family="Arial" font-size="16px">trang_thai_duyet</text>
   <rect width="126" height="20" x="1749" y="486" style="fill:none;stroke:black;"/>
   <text width="126" height="20" x="1754" y="500" style="fill:black;" font-family="Arial" font-size="16px">ghi_chu_duyet</text>
   <rect width="126" height="20" x="1749" y="506" style="fill:none;stroke:black;"/>
   <text width="126" height="20" x="1754" y="520" style="fill:black;" font-family="Arial" font-size="16px">ngay_thanh_toan</text>
   <rect width="126" height="20" x="1749" y="526" style="fill:none;stroke:black;"/>
   <text width="126" height="20" x="1754" y="540" style="fill:black;" font-family="Arial" font-size="16px">ngay_duyet</text>
   <rect width="134" height="20" x="1481" y="80" style="fill:#007;stroke:black;"/>
   <text width="134" height="20" x="1486" y="94" style="fill:#fff;" font-family="Arial" font-size="16px"> thong_so_ky_thuat</text>
   <rect width="134" height="20" x="1481" y="100" style="fill:#aea;stroke:black;"/>
   <text width="134" height="20" x="1486" y="114" style="fill:black;" font-family="Arial" font-size="16px">id</text>
   <rect width="134" height="20" x="1481" y="120" style="fill:none;stroke:black;"/>
   <text width="134" height="20" x="1486" y="134" style="fill:black;" font-family="Arial" font-size="16px">san_pham_id</text>
   <rect width="134" height="20" x="1481" y="140" style="fill:none;stroke:black;"/>
   <text width="134" height="20" x="1486" y="154" style="fill:black;" font-family="Arial" font-size="16px">ten_thong_so</text>
   <rect width="134" height="20" x="1481" y="160" style="fill:none;stroke:black;"/>
   <text width="134" height="20" x="1486" y="174" style="fill:black;" font-family="Arial" font-size="16px">gia_tri</text>
   <rect width="134" height="20" x="1481" y="180" style="fill:none;stroke:black;"/>
   <text width="134" height="20" x="1486" y="194" style="fill:black;" font-family="Arial" font-size="16px">thu_tu</text>
   <rect width="107" height="20" x="527" y="79" style="fill:#007;stroke:black;"/>
   <text width="107" height="20" x="532" y="93" style="fill:#fff;" font-family="Arial" font-size="16px"> yeu_thich</text>
   <rect width="107" height="20" x="527" y="99" style="fill:#aea;stroke:black;"/>
   <text width="107" height="20" x="532" y="113" style="fill:black;" font-family="Arial" font-size="16px">nguoi_dung_id</text>
   <rect width="107" height="20" x="527" y="119" style="fill:#aea;stroke:black;"/>
   <text width="107" height="20" x="532" y="133" style="fill:black;" font-family="Arial" font-size="16px">san_pham_id</text>
   <rect width="107" height="20" x="527" y="139" style="fill:none;stroke:black;"/>
   <text width="107" height="20" x="532" y="153" style="fill:black;" font-family="Arial" font-size="16px">ngay_them</text>
</svg>
